solid ASCII
  facet normal -1.000000e+00 0.000000e+00 0.000000e+00
    outer loop
      vertex   1.777251e+01 0.000000e+00 4.655692e+01
      vertex   1.777251e+01 0.000000e+00 6.655692e+01
      vertex   1.777251e+01 2.500000e+00 4.655692e+01
    endloop
  endfacet
  facet normal -1.000000e+00 0.000000e+00 0.000000e+00
    outer loop
      vertex   1.777251e+01 2.500000e+00 4.655692e+01
      vertex   1.777251e+01 0.000000e+00 6.655692e+01
      vertex   1.777251e+01 2.500000e+00 6.655692e+01
    endloop
  endfacet
  facet normal 0.000000e+00 0.000000e+00 -1.000000e+00
    outer loop
      vertex   2.027251e+01 0.000000e+00 4.655692e+01
      vertex   1.777251e+01 0.000000e+00 4.655692e+01
      vertex   2.027251e+01 2.500000e+00 4.655692e+01
    endloop
  endfacet
  facet normal -0.000000e+00 0.000000e+00 -1.000000e+00
    outer loop
      vertex   2.027251e+01 2.500000e+00 4.655692e+01
      vertex   1.777251e+01 0.000000e+00 4.655692e+01
      vertex   1.777251e+01 2.500000e+00 4.655692e+01
    endloop
  endfacet
  facet normal 1.000000e+00 -0.000000e+00 0.000000e+00
    outer loop
      vertex   2.027251e+01 0.000000e+00 6.655692e+01
      vertex   2.027251e+01 0.000000e+00 4.655692e+01
      vertex   2.027251e+01 2.500000e+00 6.655692e+01
    endloop
  endfacet
  facet normal 1.000000e+00 0.000000e+00 0.000000e+00
    outer loop
      vertex   2.027251e+01 2.500000e+00 6.655692e+01
      vertex   2.027251e+01 0.000000e+00 4.655692e+01
      vertex   2.027251e+01 2.500000e+00 4.655692e+01
    endloop
  endfacet
  facet normal 0.000000e+00 0.000000e+00 1.000000e+00
    outer loop
      vertex   1.777251e+01 0.000000e+00 6.655692e+01
      vertex   2.027251e+01 0.000000e+00 6.655692e+01
      vertex   1.777251e+01 2.500000e+00 6.655692e+01
    endloop
  endfacet
  facet normal -0.000000e+00 0.000000e+00 1.000000e+00
    outer loop
      vertex   1.777251e+01 2.500000e+00 6.655692e+01
      vertex   2.027251e+01 0.000000e+00 6.655692e+01
      vertex   2.027251e+01 2.500000e+00 6.655692e+01
    endloop
  endfacet
  facet normal 0.000000e+00 1.000000e+00 0.000000e+00
    outer loop
      vertex   2.027251e+01 2.500000e+00 6.655692e+01
      vertex   2.027251e+01 2.500000e+00 4.655692e+01
      vertex   1.777251e+01 2.500000e+00 6.655692e+01
    endloop
  endfacet
  facet normal 0.000000e+00 1.000000e+00 0.000000e+00
    outer loop
      vertex   1.777251e+01 2.500000e+00 6.655692e+01
      vertex   2.027251e+01 2.500000e+00 4.655692e+01
      vertex   1.777251e+01 2.500000e+00 4.655692e+01
    endloop
  endfacet
  facet normal -0.000000e+00 -1.000000e+00 -0.000000e+00
    outer loop
      vertex   2.027251e+01 0.000000e+00 6.655692e+01
      vertex   1.777251e+01 0.000000e+00 6.655692e+01
      vertex   2.027251e+01 0.000000e+00 4.655692e+01
    endloop
  endfacet
  facet normal 0.000000e+00 -1.000000e+00 0.000000e+00
    outer loop
      vertex   2.027251e+01 0.000000e+00 4.655692e+01
      vertex   1.777251e+01 0.000000e+00 6.655692e+01
      vertex   1.777251e+01 0.000000e+00 4.655692e+01
    endloop
  endfacet
endsolid
